<svg width="20" height="20" viewBox="0 0 20 20" fill="none" xmlns="http://www.w3.org/2000/svg">
<rect width="20" height="20" fill="white"/>
<path d="M18.1761 10.3176C18.1772 9.76046 18.1289 9.20425 18.0317 8.65527H10.1636V11.8057H14.6706C14.5781 12.3092 14.3825 12.789 14.0956 13.2163C13.8087 13.6436 13.4365 14.0095 13.0013 14.2919V16.3371H15.6905C16.5117 15.5603 17.1573 14.623 17.5854 13.5861C18.0136 12.5491 18.2148 11.4356 18.1761 10.3176Z" fill="#4285F4"/>
<path d="M10.1645 18.3108C12.1977 18.3668 14.1762 17.6605 15.6964 16.3359L13.0072 14.2907C12.3596 14.697 11.626 14.9534 10.8621 15.0404C10.0983 15.1273 9.32429 15.0425 8.59887 14.7925C7.87344 14.5424 7.21567 14.1337 6.67549 13.5972C6.1353 13.0608 5.7269 12.4108 5.48129 11.6965H2.70612V13.8039C3.40096 15.1589 4.46639 16.2979 5.78342 17.0938C7.10046 17.8896 8.61725 18.311 10.1645 18.3108Z" fill="#34A853"/>
<path d="M5.47803 11.6938C5.12838 10.6778 5.12838 9.57735 5.47803 8.56132V6.45801H2.70619C2.12238 7.59792 1.81836 8.85576 1.81836 10.1312C1.81836 11.4067 2.12238 12.6646 2.70619 13.8045L5.47803 11.6938Z" fill="#FBBC04"/>
<path d="M10.1645 5.18632C11.3546 5.16771 12.5045 5.60845 13.3661 6.41346L15.749 4.07781C14.2376 2.68843 12.2364 1.9262 10.1645 1.95077C8.61725 1.95059 7.10046 2.37195 5.78342 3.1678C4.46639 3.96364 3.40096 5.10265 2.70612 6.45764L5.47879 8.56504C5.80161 7.59253 6.42721 6.74362 7.26766 6.13759C8.10811 5.53157 9.12116 5.19889 10.1645 5.18632Z" fill="#EA4335"/>
</svg>
